<svg width="26" height="26" viewBox="0 0 26 26" fill="none" xmlns="http://www.w3.org/2000/svg">
<path d="M0 7.07586H5.58298V25.3279H0V7.07586ZM21.4193 8.2032C22.5288 8.8116 23.4414 9.73315 24.1571 10.9678C24.8729 12.2025 25.2308 13.4641 25.2308 14.7525V25.3279H19.5941V14.7525C19.5941 14.4662 19.4867 14.1441 19.272 13.7862C19.0573 13.4283 18.8604 13.1957 18.6815 13.0883C18.3952 12.9094 18.0015 12.8199 17.5005 12.8199C16.9995 12.8199 16.6058 12.8915 16.3195 13.0346L14.0111 14.162V25.3279H8.37447V7.07586H14.0111V7.93478C15.1206 7.43375 16.3732 7.20112 17.7689 7.23691C19.1646 7.2727 20.3815 7.59479 21.4193 8.2032ZM2.79149 0.043457C3.57883 0.043457 4.24092 0.311869 4.77774 0.848694C5.31457 1.38552 5.58298 2.0476 5.58298 2.83495C5.58298 3.62229 5.31457 4.29332 4.77774 4.84804C4.24092 5.40276 3.57883 5.68012 2.79149 5.68012C2.00415 5.68012 1.34206 5.40276 0.805237 4.84804C0.268412 4.29332 0 3.62229 0 2.83495C0 2.0476 0.268412 1.38552 0.805237 0.848694C1.34206 0.311869 2.00415 0.043457 2.79149 0.043457Z" fill="#001445"/>
</svg>
